# xmcd
#
# Track frame offsets: 
#        150
#        15502
#        33985
#        50922
#        66415
#        82130
#        100165
#        117097
#        131027
#        150860
#
# Disc length: 2207 seconds
#
# Revision: 4
# Processed by: cddbd v1.5.2PL0 Copyright (c) Steve Scherf et al.
# Submitted via: ExactAudioCopy v1.0b3
#
DISCID=7f089d0a
DTITLE=Billy Ray Cyrus - 20th Century Masters - The Millennium Collect
DTITLE=ion: The Best of Billy Ray Cyrus
DYEAR=2003
DGENRE=Country
TTITLE0=Achy Breaky Heart
TTITLE1=Some Gave All
TTITLE2=Could've Been Me
TTITLE3=She's Not Cryin' Anymore
TTITLE4=Wher'm I Gonna Live?
TTITLE5=In the Heart of a Woman
TTITLE6=Somebody New
TTITLE7=Words by Heart
TTITLE8=It's All the Same to Me
TTITLE9=Busy Man
EXTD=Mercury Records
EXTT0=
EXTT1=
EXTT2=
EXTT3=
EXTT4=
EXTT5=
EXTT6=
EXTT7=
EXTT8=
EXTT9=
PLAYORDER=
